<svg id="Capa_1" data-name="Capa 1" xmlns="http://www.w3.org/2000/svg" viewBox="0 0 31.76 31.76"><defs><style>.cls-1{fill:#1d1d1b;}.cls-2{fill:#fff;}</style></defs><circle class="cls-1" cx="15.88" cy="15.88" r="15.88"/><path class="cls-2" d="M14.33,11.5a6.28,6.28,0,0,0-1.19,2.66,6.51,6.51,0,0,0,2.91,6.65,7,7,0,0,0,7,.42c.33-.15.63-.36,1-.49a11.69,11.69,0,0,1-.91.81,7.1,7.1,0,0,1-9.71-1.14,6.36,6.36,0,0,1-.2-7.86c.3-.4.65-.75,1-1.13Z" transform="translate(-0.12 -0.12)"/><path class="cls-2" d="M20.56,21a1.1,1.1,0,0,0,.36,0,5,5,0,0,0,3.31-2.71,5.3,5.3,0,0,0-.72-5.82,5.42,5.42,0,0,0-4.38-2.12h-.24c2.81.61,4.6,2.24,4.91,5.12a5.08,5.08,0,0,1-3.23,5.44Z" transform="translate(-0.12 -0.12)"/><path class="cls-2" d="M12.72,26.63c-2.53,0-4.89,0-7.25,0a2.39,2.39,0,0,1-2.33-2.16C3,20.3,3.12,16.13,3.09,12,3,9.49,4.88,8.6,6.91,8.78c4.63-.07,4,1,5.89-3.51a1.68,1.68,0,0,1,1.62-1h5.15a1.5,1.5,0,0,1,1.48.94c.38.86.77,1.72,1.12,2.59s.64,1.1,1.72,1.07a34.7,34.7,0,0,1,4.56,0,2.3,2.3,0,0,1,1.86,1.31c-2.14,0-4.19,0-6.24,0a6.39,6.39,0,0,1-2.93-.7C9.71,4.16,1.68,20.61,12.72,26.63Z" transform="translate(-0.12 -0.12)"/><path class="cls-2" d="M11.52,11.72c-3.41,5-.1,12.27,6.05,12.35,1.5.08,3,0,4.53,0-1.11,1.55-4.52,2.5-7,1.89C8.56,25,6.21,15.34,11.52,11.72Z" transform="translate(-0.12 -0.12)"/><path class="cls-2" d="M8.34,7.84c-.71-.08-2.07.34-2-.76,0-.42.08-.79.59-.82a21.29,21.29,0,0,1,2.88,0c.56,0,.63.44.62.87C10.4,8.2,9,7.74,8.34,7.84Z" transform="translate(-0.12 -0.12)"/></svg>