<?xml version="1.0" encoding="utf-8"?>
<!-- Generator: Adobe Illustrator 26.0.3, SVG Export Plug-In . SVG Version: 6.00 Build 0)  -->
<svg version="1.1" id="Capa_1" xmlns="http://www.w3.org/2000/svg" xmlns:xlink="http://www.w3.org/1999/xlink" x="0px" y="0px"
	 viewBox="0 0 38 39" style="enable-background:new 0 0 38 39;" xml:space="preserve">
<style type="text/css">
	.st0{fill:#FFFFFF;}
	.st1{fill:#32C6EB;}
</style>
<path class="st0" d="M18.9,38.3c10.4,0,18.8-8.4,18.8-18.8S29.3,0.7,18.9,0.7C8.5,0.7,0.1,9.1,0.1,19.5S8.5,38.3,18.9,38.3z"/>
<path class="st1" d="M20.4,16.9c0.3-0.3,0.6-0.7,0.9-1c1-0.9,2.1-1.4,3.5-1.4c0.7,0,1.5,0.1,2.2,0.3c1.6,0.5,2.6,1.6,3,3.2
	c0.3,1.2,0.4,2.4,0.4,3.7c0,2.6,0,5.2,0,7.8c0,0.2-0.1,0.3-0.3,0.3c-1.3,0-2.7,0-4,0c-0.2,0-0.3-0.1-0.3-0.3c0-2.5,0-4.9,0-7.4
	c0-0.6,0-1.2-0.2-1.8c-0.3-1.1-1.1-1.7-2.3-1.6c-1.6,0.1-2.4,0.9-2.6,2.5c0,0.4-0.1,0.8-0.1,1.2c0,2.4,0,4.8,0,7.2
	c0,0.2-0.1,0.3-0.3,0.3c-1.3,0-2.7,0-4,0c-0.2,0-0.3-0.1-0.3-0.3c0-4.8,0-9.5,0-14.3c0-0.2,0.1-0.3,0.3-0.3c1.3,0,2.6,0,3.8,0
	c0.2,0,0.3,0.1,0.3,0.3C20.4,15.8,20.4,16.4,20.4,16.9L20.4,16.9z"/>
<path class="st1" d="M13,22.4c0,2.4,0,4.7,0,7.1c0,0.3-0.1,0.3-0.3,0.3c-1.3,0-2.7,0-4,0c-0.2,0-0.3-0.1-0.3-0.3c0-4.8,0-9.5,0-14.3
	c0-0.2,0-0.3,0.3-0.3c1.4,0,2.7,0,4.1,0c0.3,0,0.3,0.1,0.3,0.3C13,17.6,13,20,13,22.4L13,22.4z"/>
<path class="st1" d="M13.4,10.2c0,1.5-1.2,2.7-2.7,2.7c-1.5,0-2.7-1.2-2.7-2.7c0-1.5,1.2-2.7,2.7-2.7C12.2,7.5,13.4,8.7,13.4,10.2
	L13.4,10.2z"/>
</svg>
