<svg width="38" height="27" viewBox="0 0 38 27" fill="none" xmlns="http://www.w3.org/2000/svg">
<path d="M36.8145 26.8125H1.18554C0.918939 26.8125 0.690426 26.5875 0.690426 26.325V0.675C0.690426 0.4125 0.918939 0.1875 1.18554 0.1875H36.8145C37.0811 0.1875 37.3096 0.4125 37.3096 0.675V26.325C37.3096 26.5875 37.0811 26.8125 36.8145 26.8125ZM1.68065 25.8375H36.3003V1.1625H1.68065V25.8188V25.8375Z" fill="white"/>
<path d="M36.8145 27H1.18554C0.804684 27 0.5 26.7 0.5 26.325V0.675C0.5 0.3 0.804684 0 1.18554 0H36.8145C37.1953 0 37.5 0.3 37.5 0.675V26.325C37.5 26.7 37.1953 27 36.8145 27ZM1.18554 0.375C1.01415 0.375 0.880854 0.50625 0.880854 0.675V26.325C0.880854 26.4937 1.01415 26.625 1.18554 26.625H36.8145C36.9858 26.625 37.1191 26.4937 37.1191 26.325V0.675C37.1191 0.50625 36.9858 0.375 36.8145 0.375H1.18554ZM36.3194 26.0063H1.68065C1.58543 26.0063 1.49022 25.9313 1.49022 25.8188V1.1625C1.49022 1.06875 1.56639 0.975 1.68065 0.975H36.3003C36.3955 0.975 36.4907 1.05 36.4907 1.1625V25.8188C36.4907 25.9125 36.4146 26.0063 36.3003 26.0063H36.3194ZM1.87108 25.65H36.1289V1.35H1.87108V25.65Z" fill="white"/>
<path d="M18.9905 17.3625C18.8762 17.3625 18.7429 17.325 18.6477 17.2312L0.842772 1.03122C0.633303 0.843724 0.633303 0.543724 0.82373 0.337474C1.01416 0.131224 1.31884 0.131224 1.52831 0.318724L19.0095 16.2187L36.4717 0.318724C36.6812 0.131224 36.9859 0.149974 37.1763 0.337474C37.3667 0.543724 37.3477 0.843724 37.1572 1.03122L19.3523 17.2312C19.2571 17.325 19.1428 17.3625 19.0095 17.3625H18.9905Z" fill="white"/>
<path d="M18.9905 17.55C18.8191 17.55 18.6477 17.4938 18.5335 17.3625L0.728517 1.18125C0.442876 0.91875 0.423834 0.4875 0.690432 0.225C0.804688 0.09375 0.976072 0 1.1665 0C1.35693 0 1.52831 0.05625 1.66161 0.1875L19.0095 15.975L36.3384 0.1875C36.4717 0.05625 36.6431 0 36.8335 0C37.0239 0 37.1953 0.09375 37.3096 0.225C37.4429 0.35625 37.5 0.525 37.5 0.7125C37.5 0.9 37.4238 1.06875 37.2715 1.18125L19.4666 17.3813C19.3333 17.4938 19.1809 17.5688 19.0095 17.5688L18.9905 17.55ZM1.18554 0.375C1.10937 0.375 1.0332 0.4125 0.976072 0.46875C0.918944 0.525 0.880859 0.6 0.899901 0.69375C0.899901 0.76875 0.937987 0.84375 0.995115 0.9L18.8001 17.1C18.9143 17.2125 19.1047 17.2125 19.219 17.1L37.0239 0.9C37.1572 0.7875 37.1572 0.58125 37.0239 0.46875C36.9668 0.4125 36.8906 0.375 36.8145 0.375C36.7383 0.375 36.6431 0.39375 36.586 0.45L19.1047 16.35C19.1047 16.35 18.9143 16.4063 18.8572 16.35L1.39501 0.45C1.39501 0.45 1.26171 0.375 1.18554 0.375Z" fill="white"/>
</svg>
