<svg width="33" height="31" viewBox="0 0 33 31" fill="none" xmlns="http://www.w3.org/2000/svg">
<path d="M6.97482 30.8326C6.89243 30.8326 6.79355 30.7991 6.72763 30.7489C6.57932 30.6318 6.5134 30.4309 6.56284 30.2635L10.1059 19.1825L0.827998 12.3364C0.679683 12.2192 0.613765 12.0184 0.663204 11.851C0.729121 11.6669 0.893916 11.5497 1.07519 11.5497H12.5449L16.0879 0.468683C16.1539 0.284558 16.3187 0.167374 16.4999 0.167374C16.6812 0.167374 16.846 0.284558 16.9119 0.468683L20.455 11.5497H31.9247C32.106 11.5497 32.2707 11.6669 32.3367 11.851C32.4026 12.0351 32.3367 12.236 32.1719 12.3364L22.894 19.1825L26.437 30.2635C26.5029 30.4476 26.437 30.6485 26.2722 30.7489C26.1239 30.8661 25.9097 30.8661 25.7614 30.7489L16.4835 23.9028L7.20554 30.7489C7.20554 30.7489 7.04074 30.8326 6.95834 30.8326H6.97482ZM2.4265 12.4201L10.8804 18.6636C11.0288 18.7808 11.0947 18.9649 11.0452 19.149L7.81528 29.2425L16.2692 22.9989C16.4175 22.8817 16.6318 22.8817 16.7801 22.9989L25.234 29.2425L22.0041 19.149C21.9546 18.9649 22.0041 18.764 22.1689 18.6636L30.6228 12.4201H20.1748C19.9936 12.4201 19.8288 12.3029 19.7629 12.1188L16.5329 2.02537L13.3029 12.1188C13.237 12.3029 13.0722 12.4201 12.8909 12.4201H2.4265Z" fill="white"/>
<path d="M6.97489 31C6.84305 31 6.7277 30.9665 6.62882 30.8828C6.41459 30.7322 6.33219 30.4644 6.41459 30.2133L9.92471 19.2495L0.745667 12.4703C0.531434 12.3197 0.449037 12.0518 0.531434 11.8008C0.613831 11.5497 0.844543 11.3823 1.09173 11.3823H12.4296L15.9397 0.418467C16.0221 0.167387 16.2528 0 16.5 0C16.7472 0 16.9779 0.167387 17.0603 0.418467L20.5704 11.3823H31.9083C32.1719 11.3823 32.3862 11.5497 32.4686 11.8008C32.551 12.0518 32.4686 12.3197 32.2543 12.4703L23.0753 19.2495L26.5854 30.2133C26.6678 30.4644 26.5854 30.7322 26.3712 30.8828C26.1569 31.0335 25.8768 31.0335 25.679 30.8828L16.5 24.1037L7.32096 30.8828C7.22208 30.9665 7.09025 31 6.97489 31ZM1.09173 11.7171C0.976379 11.7171 0.877502 11.8008 0.828064 11.9012C0.795105 12.0184 0.828064 12.1355 0.92694 12.2025L10.2049 19.0486C10.2049 19.0486 10.2873 19.1658 10.2708 19.2327L6.7277 30.3137C6.69474 30.4309 6.7277 30.5481 6.82657 30.615C6.92545 30.682 7.05729 30.682 7.13968 30.615L16.4176 23.7689C16.4176 23.7689 16.5494 23.7354 16.6154 23.7689L25.8933 30.615C25.9921 30.682 26.1075 30.682 26.2064 30.615C26.3053 30.5481 26.3382 30.4142 26.3053 30.3137L22.7622 19.2327C22.7622 19.2327 22.7622 19.0821 22.8281 19.0486L32.106 12.2025C32.2049 12.1355 32.2379 12.0016 32.2049 11.9012C32.1719 11.784 32.0731 11.7171 31.9412 11.7171H20.4715C20.4715 11.7171 20.3397 11.6668 20.3232 11.5999L16.7801 0.518895C16.7142 0.284553 16.3352 0.284553 16.2693 0.518895L12.7262 11.5999C12.7262 11.5999 12.6438 11.7171 12.5779 11.7171H1.09173ZM25.2176 29.4098C25.2176 29.4098 25.1517 29.4098 25.1187 29.3764L16.6648 23.1328C16.5659 23.0659 16.4506 23.0659 16.3517 23.1328L7.89774 29.3764C7.89774 29.3764 7.7659 29.4098 7.69998 29.3764C7.65055 29.3262 7.61759 29.2592 7.63407 29.1922L10.864 19.0988C10.897 18.9817 10.864 18.8645 10.7652 18.7975L2.31121 12.554C2.31121 12.554 2.22882 12.4368 2.24529 12.3699C2.26177 12.3029 2.32769 12.2527 2.39361 12.2527H12.8416C12.9569 12.2527 13.0558 12.169 13.1052 12.0686L16.3352 1.97515C16.3846 1.84124 16.5989 1.84124 16.6483 1.97515L19.8783 12.0686C19.9112 12.1857 20.0101 12.2527 20.142 12.2527H30.5899C30.5899 12.2527 30.7217 12.3029 30.7382 12.3699C30.7547 12.4368 30.7382 12.5038 30.6723 12.554L22.2184 18.7975C22.1195 18.8645 22.0865 18.9984 22.1195 19.0988L25.3494 29.1922C25.3494 29.1922 25.3494 29.3262 25.2835 29.3764C25.2506 29.3931 25.2176 29.4098 25.1847 29.4098H25.2176ZM2.92095 12.5875L10.9629 18.5297C11.1771 18.6803 11.2595 18.9482 11.1771 19.1993L8.09549 28.8072L16.1375 22.865C16.3517 22.7144 16.6318 22.7144 16.8296 22.865L24.8715 28.8072L21.7899 19.1993C21.7075 18.9482 21.7899 18.6803 22.0041 18.5297L30.0461 12.5875H20.0925C19.8288 12.5875 19.6146 12.4201 19.5322 12.169L16.4506 2.56101L13.3689 12.169C13.2865 12.4201 13.0558 12.5875 12.8086 12.5875H2.92095Z" fill="white"/>
</svg>
