<svg width="32" height="37" viewBox="0 0 32 37" fill="none" xmlns="http://www.w3.org/2000/svg">
<path d="M10.6666 16.2217C10.6666 17.6804 11.2461 19.0793 12.2775 20.1108C13.309 21.1422 14.7079 21.7217 16.1666 21.7217C17.6253 21.7217 19.0243 21.1422 20.0557 20.1108C21.0872 19.0793 21.6666 17.6804 21.6666 16.2217C21.6666 14.763 21.0872 13.364 20.0557 12.3326C19.0243 11.3011 17.6253 10.7217 16.1666 10.7217C14.7079 10.7217 13.309 11.3011 12.2775 12.3326C11.2461 13.364 10.6666 14.763 10.6666 16.2217Z" stroke="white" stroke-width="3" stroke-linecap="round" stroke-linejoin="round"/>
<path d="M26.5378 26.5929L18.759 34.3717C18.0715 35.0586 17.1394 35.4444 16.1676 35.4444C15.1958 35.4444 14.2637 35.0586 13.5762 34.3717L5.79551 26.5929C3.74441 24.5417 2.34762 21.9284 1.78177 19.0833C1.21591 16.2383 1.5064 13.2893 2.61651 10.6094C3.72662 7.92947 5.60648 5.63889 8.01839 4.02733C10.4303 2.41577 13.2659 1.5556 16.1667 1.5556C19.0674 1.5556 21.9031 2.41577 24.315 4.02733C26.7269 5.63889 28.6067 7.92947 29.7168 10.6094C30.8269 13.2893 31.1174 16.2383 30.5516 19.0833C29.9857 21.9284 28.5889 24.5417 26.5378 26.5929Z" stroke="white" stroke-width="2" stroke-linecap="round" stroke-linejoin="round"/>
</svg>
