<svg width="45" height="45" viewBox="0 0 45 45" fill="none" xmlns="http://www.w3.org/2000/svg">
<g clip-path="url(#clip0_8054_1045)">
<path d="M9.66667 7.83331H17L20.6667 17L16.0833 19.75C18.0468 23.7311 21.2689 26.9532 25.25 28.9166L28 24.3333L37.1667 28V35.3333C37.1667 36.3058 36.7804 37.2384 36.0927 37.926C35.4051 38.6137 34.4725 39 33.5 39C26.3487 38.5654 19.6036 35.5286 14.5375 30.4625C9.47142 25.3964 6.43459 18.6513 6 11.5C6 10.5275 6.38631 9.59489 7.07394 8.90725C7.76158 8.21962 8.69421 7.83331 9.66667 7.83331Z" stroke="white" stroke-width="1.5" stroke-linecap="round" stroke-linejoin="round"/>
</g>
<defs>
<clipPath id="clip0_8054_1045">
<rect width="44" height="44" fill="white" transform="translate(0.5 0.5)"/>
</clipPath>
</defs>
</svg>
