<svg width="37" height="37" viewBox="0 0 37 37" fill="none" xmlns="http://www.w3.org/2000/svg">
<g clip-path="url(#clip0_8054_1095)">
<path d="M18.5 20C19.6935 20 20.8381 19.5259 21.682 18.682C22.5259 17.8381 23 16.6935 23 15.5C23 14.3065 22.5259 13.1619 21.682 12.318C20.8381 11.4741 19.6935 11 18.5 11C17.3065 11 16.1619 11.4741 15.318 12.318C14.4741 13.1619 14 14.3065 14 15.5C14 16.6935 14.4741 17.8381 15.318 18.682C16.1619 19.5259 17.3065 20 18.5 20Z" stroke="white" stroke-width="2" stroke-linecap="round" stroke-linejoin="round"/>
<path d="M18.5 5C29.3 5 32 7.7 32 18.5C32 29.3 29.3 32 18.5 32C7.7 32 5 29.3 5 18.5C5 7.7 7.7 5 18.5 5Z" stroke="white" stroke-width="2" stroke-linecap="round" stroke-linejoin="round"/>
<path d="M9.5 30.575V30.5C9.5 28.9087 10.1321 27.3826 11.2574 26.2574C12.3826 25.1321 13.9087 24.5 15.5 24.5H21.5C23.0913 24.5 24.6174 25.1321 25.7426 26.2574C26.8679 27.3826 27.5 28.9087 27.5 30.5V30.575" stroke="white" stroke-width="2" stroke-linecap="round" stroke-linejoin="round"/>
</g>
<defs>
<clipPath id="clip0_8054_1095">
<rect width="36" height="36" fill="white" transform="translate(0.5 0.5)"/>
</clipPath>
</defs>
</svg>
