<?xml version="1.0" encoding="utf-8"?>
<!-- Generator: Adobe Illustrator 26.0.3, SVG Export Plug-In . SVG Version: 6.00 Build 0)  -->
<svg version="1.1" id="Capa_1" xmlns="http://www.w3.org/2000/svg" xmlns:xlink="http://www.w3.org/1999/xlink" x="0px" y="0px"
	 viewBox="0 0 38 39" style="enable-background:new 0 0 38 39;" xml:space="preserve">
<style type="text/css">
	.st0{fill:#FFFFFF;}
	.st1{fill:#32C6EB;}
</style>
<path class="st0" d="M19.1,38.3c10.4,0,18.8-8.4,18.8-18.8S29.5,0.7,19.1,0.7C8.7,0.7,0.3,9.1,0.3,19.5S8.7,38.3,19.1,38.3z"/>
<g>
	<path class="st1" d="M19.1,9.8c3.2,0,3.5,0,4.8,0.1c1.2,0.1,1.8,0.2,2.2,0.4c0.6,0.2,0.9,0.5,1.4,0.9c0.4,0.4,0.7,0.8,0.9,1.4
		c0.2,0.4,0.4,1,0.4,2.2c0.1,1.2,0.1,1.6,0.1,4.8s0,3.5-0.1,4.8c-0.1,1.2-0.2,1.8-0.4,2.2c-0.2,0.6-0.5,0.9-0.9,1.4
		c-0.4,0.4-0.8,0.7-1.4,0.9c-0.4,0.2-1,0.4-2.2,0.4c-1.2,0.1-1.6,0.1-4.8,0.1c-3.2,0-3.5,0-4.8-0.1c-1.2-0.1-1.8-0.2-2.2-0.4
		c-0.6-0.2-0.9-0.5-1.4-0.9c-0.4-0.4-0.7-0.8-0.9-1.4c-0.2-0.4-0.4-1-0.4-2.2c-0.1-1.2-0.1-1.6-0.1-4.8s0-3.5,0.1-4.8
		c0.1-1.2,0.2-1.8,0.4-2.2c0.2-0.6,0.5-0.9,0.9-1.4c0.4-0.4,0.8-0.7,1.4-0.9c0.4-0.2,1-0.4,2.2-0.4C15.5,9.8,15.9,9.8,19.1,9.8z
		 M19.1,7.6c-3.2,0-3.6,0-4.9,0.1c-1.3,0.1-2.1,0.3-2.9,0.6C10.5,8.6,9.9,9,9.2,9.6c-0.7,0.7-1.1,1.3-1.4,2.1
		c-0.3,0.8-0.5,1.6-0.6,2.9c-0.1,1.3-0.1,1.7-0.1,4.9c0,3.2,0,3.6,0.1,4.9c0.1,1.3,0.3,2.1,0.6,2.9c0.3,0.8,0.7,1.4,1.4,2.1
		c0.7,0.7,1.3,1.1,2.1,1.4c0.8,0.3,1.6,0.5,2.9,0.6c1.3,0.1,1.7,0.1,4.9,0.1c3.2,0,3.6,0,4.9-0.1c1.3-0.1,2.1-0.3,2.9-0.6
		c0.8-0.3,1.4-0.7,2.1-1.4c0.7-0.7,1.1-1.3,1.4-2.1c0.3-0.8,0.5-1.6,0.6-2.9c0.1-1.3,0.1-1.7,0.1-4.9c0-3.2,0-3.6-0.1-4.9
		c-0.1-1.3-0.3-2.1-0.6-2.9c-0.3-0.8-0.7-1.4-1.4-2.1c-0.7-0.7-1.3-1.1-2.1-1.4C26.1,8,25.2,7.8,24,7.7C22.7,7.7,22.3,7.6,19.1,7.6z
		"/>
	<path class="st1" d="M19.1,13.4c-3.4,0-6.1,2.7-6.1,6.1s2.7,6.1,6.1,6.1c3.4,0,6.1-2.7,6.1-6.1S22.4,13.4,19.1,13.4z M19.1,23.5
		c-2.2,0-3.9-1.8-3.9-4s1.8-4,3.9-4c2.2,0,3.9,1.8,3.9,4S21.3,23.5,19.1,23.5z"/>
	<path class="st1" d="M25.4,14.6c0.8,0,1.4-0.6,1.4-1.4s-0.6-1.4-1.4-1.4c-0.8,0-1.4,0.6-1.4,1.4S24.6,14.6,25.4,14.6z"/>
</g>
</svg>
