<?xml version="1.0" encoding="UTF-8"?>
<svg id="Capa_1" data-name="Capa 1" xmlns="http://www.w3.org/2000/svg" viewBox="0 0 254.4 105.56">
  <defs>
    <style>
      .cls-1 {
        fill: #fff;
        stroke-width: 0px;
      }
    </style>
  </defs>
  <g>
    <path class="cls-1" d="M172.26,10.71c-.42.27-.95.4-1.58.4-.42,0-.83-.07-1.22-.2-.39-.13-.73-.3-1.01-.49-.28-.19-.5-.37-.65-.55-.16-.18-.21-.31-.17-.4.49-.22,1.03-.57,1.63-1.04.59-.47,1.14-.99,1.66-1.56.51-.57.94-1.15,1.29-1.74.35-.59.52-1.14.52-1.66,0-.42-.12-.78-.35-1.07-.23-.29-.64-.48-1.22-.57-.18-.04-.37-.07-.57-.07h-.6c-.8,0-1.69.08-2.65.25-.96.17-1.92.41-2.88.74-.96.32-1.89.72-2.78,1.19-.89.47-1.67,1.02-2.33,1.64-.66.63-1.17,1.32-1.52,2.09-.36.77-.48,1.61-.37,2.53.07.63.23,1.23.49,1.83.26.59.57,1.17.94,1.73.37.56.78,1.1,1.22,1.63.45.53.89,1.02,1.34,1.49.56.6,1.11,1.22,1.64,1.84.54.63,1.01,1.27,1.41,1.93.4.66.72,1.34.95,2.03.23.69.32,1.41.25,2.14-.13,1.16-.62,2.35-1.46,3.55-.84,1.21-1.91,2.3-3.22,3.27-1.31.97-2.79,1.76-4.44,2.36-1.65.6-3.38.87-5.19.8-.98-.07-2.04-.26-3.17-.57-1.13-.31-2.18-.75-3.15-1.32-.97-.57-1.79-1.27-2.46-2.11-.67-.84-1.03-1.81-1.07-2.93-.04-1.16.24-2.29.86-3.38.62-1.09,1.74-2.2,3.36-3.32h-.03c.13-.11.44-.12.92-.02.48.1.99.25,1.52.45.54.2,1.01.42,1.41.67.4.25.58.44.54.57l-.77.44c-.47.27-.95.54-1.44.82-.49.28-.93.61-1.31.99s-.69.81-.94,1.29c-.25.48-.37,1.06-.37,1.73,0,.96.2,1.74.6,2.33.4.59.91,1.06,1.54,1.39.62.34,1.32.56,2.09.67.77.11,1.53.17,2.29.17,1.32,0,2.52-.18,3.62-.55,1.09-.37,2.04-.89,2.83-1.56.79-.67,1.41-1.49,1.84-2.45.43-.96.65-2.03.65-3.22,0-.65-.12-1.26-.35-1.83-.23-.57-.53-1.12-.89-1.64-.36-.52-.77-1.04-1.24-1.54-.47-.5-.94-1-1.41-1.49-.54-.56-1.07-1.12-1.59-1.68-.52-.56-.98-1.13-1.36-1.71-.38-.58-.67-1.18-.87-1.79-.2-.61-.27-1.26-.2-1.93.11-1.05.46-2.07,1.05-3.07.59-.99,1.35-1.92,2.28-2.78.93-.86,1.99-1.64,3.18-2.33,1.19-.69,2.45-1.28,3.77-1.76,1.32-.48,2.66-.84,4.03-1.07,1.37-.23,2.71-.32,4-.25.76.05,1.4.17,1.92.39.52.21.95.49,1.27.84.32.35.56.74.7,1.19.15.45.22.92.22,1.41,0,.58-.08,1.2-.25,1.84-.17.65-.39,1.28-.67,1.89-.28.61-.59,1.2-.94,1.74-.35.55-.7,1.01-1.06,1.39h-.1Z"/>
    <path class="cls-1" d="M170.67,14.33c-.2.07-.38.08-.53.03-.15-.04-.28-.12-.37-.22-.09-.1-.12-.21-.1-.34.02-.12.11-.24.27-.35,1.58-1.03,3.19-1.88,4.84-2.55,1.23-2.64,2.1-4.9,2.61-6.8.27-.13.64-.15,1.11-.03.47.11.92.3,1.34.57.42.27.77.59,1.04.97.27.38.34.76.2,1.14-.09.22-.23.56-.44,1.02-.2.46-.45.98-.74,1.56,1.68-.34,3.36-.5,5.06-.5.22,0,.5,0,.82.02.32.01.6.03.82.05.07.18.07.38,0,.6-.07.22-.17.43-.32.62-.15.19-.32.35-.52.47-.2.12-.4.16-.6.12-.27-.02-.53-.04-.77-.05-.25-.01-.49-.02-.74-.02-.78,0-1.56.05-2.33.13-.77.09-1.55.22-2.33.4l-1.58,3.08-.2.4c-.2.38-.47.91-.82,1.59-.35.68-.72,1.44-1.12,2.28-.4.84-.81,1.71-1.22,2.63-.41.92-.79,1.8-1.12,2.66-.34.86-.61,1.66-.82,2.4-.21.74-.32,1.34-.32,1.81s.06.79.17.9h.27c.6-.22,1.18-.57,1.74-1.06.56-.48,1.09-1.03,1.59-1.64.5-.61.98-1.27,1.44-1.96.46-.69.88-1.36,1.26-2.01h-.03c.11-.18.22-.35.34-.52.11-.17.22-.34.34-.52.07-.11.2-.17.39-.18.19-.01.37.02.55.08.18.07.32.16.44.27.11.11.13.25.07.4l-.84,1.37c-.34.54-.69,1.09-1.06,1.68-.37.58-.77,1.16-1.19,1.73-.42.57-.87,1.12-1.34,1.64-.47.53-.96,1-1.47,1.42-.16.13-.36.29-.6.47-.25.18-.53.34-.85.49-.32.15-.69.27-1.09.37-.4.1-.82.15-1.27.15-.91-.05-1.57-.36-1.98-.94-.41-.58-.61-1.3-.61-2.14,0-.18.01-.39.03-.64.02-.25.06-.47.1-.67.15-1.01.39-2.01.71-3.02.32-1.01.69-2,1.1-3,.41-.99.86-1.98,1.35-2.97.49-.98.99-1.97,1.5-2.95l.97-1.94c-.51.22-1.03.45-1.54.69s-1.02.5-1.53.79h-.07Z"/>
    <path class="cls-1" d="M190.43,14.23c.27-.13.62-.13,1.06.02.44.15.85.36,1.26.64.4.28.73.61.97,1.01.25.39.3.78.17,1.16-.07.18-.17.42-.32.74-.15.31-.32.68-.52,1.11-.31.67-.66,1.44-1.04,2.3-.38.86-.74,1.71-1.07,2.56-.34.85-.62,1.65-.85,2.41-.23.76-.35,1.39-.35,1.88,0,.6.07.9.2.9h.3c.6-.2,1.19-.55,1.76-1.06.57-.5,1.12-1.07,1.64-1.71.52-.64,1.02-1.31,1.47-2.03.46-.71.88-1.4,1.26-2.04l.5-.87c.11-.18.28-.29.5-.34.22-.04.43-.04.62.02.19.06.33.16.42.32.09.16.07.35-.07.57l-.8,1.27c-.69,1.12-1.45,2.26-2.26,3.42-.82,1.16-1.76,2.21-2.83,3.15-.16.13-.36.29-.6.47-.25.18-.53.34-.85.49-.32.15-.69.27-1.09.37s-.83.15-1.27.15c-.89-.05-1.56-.36-1.99-.94-.44-.58-.65-1.3-.65-2.14,0-.38.03-.76.1-1.14-.4.51-.82,1.01-1.24,1.47-.42.47-.87.89-1.34,1.27-.16.13-.36.29-.6.47-.25.18-.53.34-.85.49-.32.15-.69.27-1.09.37s-.83.15-1.27.15c-.87-.05-1.52-.35-1.96-.92-.44-.57-.65-1.28-.65-2.13,0-.47.05-.92.13-1.34.09-.4.21-.88.37-1.42.16-.55.34-1.13.55-1.76.21-.63.44-1.27.67-1.94.23-.67.47-1.33.72-1.98.34-.94.66-1.86.97-2.76.31-.9.58-1.78.8-2.63h.23c.27-.13.62-.13,1.06.02.44.15.85.36,1.24.64.39.28.71.61.95,1.01.25.39.3.78.17,1.16l-.9,2.01c-.31.67-.65,1.42-1.02,2.26s-.72,1.68-1.04,2.51c-.32.84-.6,1.63-.82,2.38-.22.75-.34,1.36-.34,1.83,0,.6.07.9.2.9h.27c.6-.22,1.18-.57,1.74-1.06.56-.48,1.09-1.03,1.59-1.64.5-.61.98-1.27,1.44-1.96.46-.69.88-1.36,1.26-2.01h-.03c.04-.11.11-.21.18-.3.08-.09.15-.19.22-.3.11-.31.22-.63.34-.94.11-.31.22-.63.34-.94.36-.96.7-1.92,1.02-2.87.32-.95.6-1.85.82-2.7h.23Z"/>
    <path class="cls-1" d="M213.95,15.91c-.74,1.39-1.45,2.77-2.14,4.16-.69,1.39-1.3,2.75-1.81,4.09h.03c-.27.65-.5,1.31-.7,1.99-.2.68-.3,1.28-.3,1.79,0,.58.07.92.2,1.01h.3c.6-.2,1.18-.55,1.74-1.04.56-.49,1.09-1.06,1.61-1.69.51-.64,1-1.31,1.46-2.03.46-.71.89-1.4,1.29-2.04.11-.16.21-.31.28-.45.08-.14.16-.3.25-.45.07-.11.2-.17.4-.18.2-.01.4.02.59.08.19.07.34.16.45.27.11.11.12.25.03.4-.13.2-.26.41-.39.62-.12.21-.25.43-.39.65-.69,1.14-1.45,2.28-2.28,3.43-.83,1.15-1.79,2.19-2.88,3.13-.16.13-.36.29-.6.47-.25.18-.53.35-.84.5-.31.16-.66.28-1.06.39-.39.1-.82.14-1.29.12-1.09-.09-1.89-.42-2.38-1.01-.49-.58-.74-1.27-.74-2.08v-.47c-.42.45-.87.87-1.32,1.27-.46.4-.93.76-1.41,1.07-.48.31-.97.56-1.46.75-.49.19-.98.28-1.47.28-.8-.07-1.48-.26-2.03-.57-.55-.31-.98-.68-1.29-1.09-.31-.41-.54-.86-.67-1.34-.13-.48-.2-.94-.2-1.39,0-.18,0-.36.02-.54.01-.18.03-.34.05-.47.09-.71.31-1.5.65-2.35.35-.85.78-1.7,1.31-2.55.52-.85,1.14-1.67,1.84-2.46.7-.79,1.47-1.5,2.3-2.11.83-.61,1.69-1.11,2.6-1.47.9-.37,1.84-.55,2.8-.55.6,0,1.17.07,1.71.2.69.2,1.23.58,1.61,1.14l.47-.87.94-1.78c.4-.74.79-1.5,1.16-2.28.37-.78.71-1.55,1.02-2.31.31-.76.59-1.48.82-2.16.23-.68.43-1.31.59-1.89.27-.13.63-.15,1.09-.03.46.11.9.3,1.32.57.42.27.77.59,1.04.97.27.38.34.76.2,1.14-.09.25-.26.65-.52,1.21-.26.56-.56,1.19-.9,1.89-.35.7-.72,1.45-1.12,2.23-.4.78-.78,1.51-1.14,2.18l-.87,1.64h.03ZM201.25,28.47c.31-.07.7-.3,1.17-.7s.94-.88,1.42-1.44c.48-.56.95-1.14,1.41-1.74.46-.6.83-1.14,1.12-1.61l.44-1.21c.27-.69.56-1.38.87-2.06.31-.68.65-1.37,1.01-2.06-.07-.45-.21-.88-.42-1.31-.21-.42-.6-.66-1.16-.7-.58-.02-1.15.11-1.69.39-.55.28-1.08.65-1.59,1.12-.51.47-.99,1.01-1.44,1.61-.45.6-.85,1.23-1.22,1.89-.37.66-.69,1.32-.95,1.98-.27.66-.48,1.27-.64,1.83-.07.27-.13.58-.2.94-.07.36-.1.72-.1,1.07,0,.31.03.61.08.89.06.28.16.52.32.72.16.2.36.34.6.42.25.08.57.07.97-.02Z"/>
    <path class="cls-1" d="M219.34,14.2c.25-.11.56-.11.95,0,.39.11.77.3,1.12.55.36.26.65.57.89.94.23.37.32.73.25,1.09l-1.21,2.21c-.34.58-.7,1.23-1.11,1.94-.4.72-.79,1.44-1.17,2.16-.38.73-.74,1.44-1.07,2.13-.34.69-.6,1.31-.79,1.86-.19.55-.29.99-.3,1.32-.01.34.12.5.39.5h.27c.63-.22,1.25-.57,1.86-1.06.61-.48,1.21-1.03,1.78-1.66.57-.63,1.12-1.28,1.64-1.96.52-.68,1.01-1.33,1.46-1.96l.5-.7c.09-.11.23-.17.44-.18.2-.01.39.01.55.07.17.06.3.15.39.27.09.12.07.26-.07.42h.03c-.89,1.39-1.85,2.7-2.88,3.95-1.03,1.25-2.23,2.43-3.62,3.53-.18.14-.4.3-.67.48-.27.18-.57.35-.9.49s-.7.27-1.09.37c-.39.1-.79.15-1.19.15-.8-.02-1.4-.28-1.78-.77-.38-.49-.57-1.08-.57-1.78,0-.56.11-1.18.34-1.88h-.03c.11-.42.28-.92.5-1.49.22-.57.47-1.18.75-1.83.28-.65.58-1.32.9-2.01.32-.69.65-1.38.99-2.08.45-.96.87-1.88,1.27-2.75.4-.87.73-1.65.97-2.35h.2ZM222.66,4.98c.25-.04.56.06.96.3.39.25.77.54,1.14.89.37.35.68.69.94,1.04.26.35.39.59.39.72-.09.36-.25.77-.49,1.24s-.47.94-.72,1.41c-.22.45-.44.89-.64,1.32s-.38.92-.54,1.46c-.25-.04-.52-.16-.82-.35-.3-.19-.58-.41-.84-.65-.26-.25-.47-.49-.65-.74-.18-.25-.27-.45-.27-.6.02-.38.08-.8.18-1.26.1-.46.22-.94.35-1.46.16-.56.3-1.12.42-1.69.12-.57.21-1.11.25-1.63h.34ZM222.49,17.05l.07-.23c.18-.31.27-.49.28-.52.01-.03-.11.22-.35.75Z"/>
    <path class="cls-1" d="M234.66,14.1c.56.07,1.04.2,1.44.4.4.2.73.45.99.74.26.29.45.61.57.97.12.36.21.72.25,1.07.42.47.69,1.12.8,1.94.02.16.04.31.05.47.01.16.02.32.02.5,0,.83-.12,1.66-.35,2.51-.23.85-.56,1.68-.99,2.48-.42.8-.93,1.56-1.51,2.26-.58.7-1.21,1.32-1.89,1.86-.68.54-1.4.96-2.14,1.26-.75.3-1.51.45-2.3.45-1.36-.02-2.57-.44-3.62-1.26-1.05-.82-1.77-1.97-2.14-3.47-.11-.49-.17-.96-.17-1.41,0-1.23.31-2.5.94-3.82.63-1.32,1.46-2.51,2.5-3.59,1.04-1.07,2.21-1.93,3.52-2.58,1.31-.65,2.65-.92,4.04-.8ZM233.92,20.83c-.13-.04-.24-.15-.32-.32-.08-.17-.13-.36-.17-.59-.03-.22-.05-.45-.05-.67v-.6c.02-.18.12-.36.3-.55.18-.19.37-.36.59-.52.21-.16.42-.3.64-.42.21-.12.35-.21.42-.25.2-.11.39-.18.57-.2-.02-.31-.12-.58-.3-.8-.18-.22-.53-.31-1.04-.27-.45.05-.99.23-1.63.57-.64.34-1.23.78-1.79,1.34h.03c-.51.51-.98,1.1-1.39,1.76-.41.66-.77,1.34-1.06,2.04-.29.7-.52,1.41-.69,2.13-.17.72-.25,1.39-.25,2.01,0,.94.18,1.73.55,2.38.37.65.97.99,1.79,1.04.83.05,1.64-.26,2.45-.9.8-.65,1.52-1.46,2.16-2.45.64-.98,1.15-2.04,1.54-3.17.39-1.13.57-2.16.55-3.1,0-.45-.04-.71-.13-.8-.2,0-.42.08-.67.25-.25.17-.48.37-.7.6-.22.23-.42.49-.59.75-.17.27-.26.51-.28.74h-.54Z"/>
  </g>
  <path class="cls-1" d="M42.98,105.52c-11.27,0-21.8.11-32.33-.04-5.4-.08-9.65-4.21-10.37-9.66-.57-18.54-.06-37.15-.21-55.71-.5-11.01,7.99-14.97,17.04-14.18,20.64-.34,17.87,4.47,26.27-15.65,1.39-3.07,3.75-4.71,7.2-4.71,7.66.01,15.32-.02,22.98.01,3.04.01,5.32,1.35,6.58,4.21,1.69,3.84,3.43,7.65,5.02,11.53,1.73,4.2,2.85,4.93,7.63,4.77,6.79-.22,13.59-.45,20.36.21,3.64.35,6.28,2.32,8.28,5.85-9.52,0-18.68-.13-27.84.05-4.7.09-8.76-1.1-13.05-3.14C29.57,5.33-6.24,78.66,42.98,105.52Z"/>
  <path class="cls-1" d="M37.66,39.02c-15.21,22.29-.47,54.72,26.98,55.07,6.66.35,13.36.06,20.18.06-4.95,6.9-20.15,11.11-31.2,8.41-29.15-4.42-39.64-47.4-15.96-63.55Z"/>
  <path class="cls-1" d="M23.45,21.71c-3.15-.34-9.2,1.55-9.01-3.37-.03-1.88.39-3.52,2.65-3.67,4.28-.29,8.57-.26,12.85-.01,2.49.15,2.78,1.99,2.74,3.89-.03,4.78-6.12,2.75-9.23,3.16Z"/>
  <g>
    <path class="cls-1" d="M49.15,37h15.07v30.1c0,2.35.38,3.92,1.13,4.7.75.78,2.25,1.17,4.47,1.17h.78v14.7h-4.01c-5.49,0-9.77-1.6-12.84-4.81-3.07-3.2-4.6-7.65-4.6-13.34v-32.51Z"/>
    <path class="cls-1" d="M111.28,37v32.85c0,5.79-1.73,10.42-5.18,13.88-3.45,3.46-8.05,5.2-13.79,5.2s-10.09-1.68-13.12-5.05c-3.03-3.36-4.55-8.2-4.55-14.51v-32.36h15.07v32.33c0,3.09,1.1,4.64,3.3,4.64s3.19-1.55,3.19-4.64v-32.33h15.07Z"/>
    <path class="cls-1" d="M119.41,87.67v-36.52c0-4.53,1.37-8.23,4.12-11.1,2.75-2.87,6.31-4.31,10.69-4.31,5.2,0,9.19,2.39,11.99,7.16,1.71-2.57,3.54-4.41,5.49-5.51,1.95-1.1,4.37-1.65,7.24-1.65,4.55,0,8.04,1.44,10.47,4.31,2.42,2.87,3.64,7,3.64,12.4v35.22h-15.07v-32.96c0-1.63-.13-2.72-.39-3.25-.26-.53-.79-.8-1.58-.8-1.48,0-2.23,1.26-2.23,3.79v33.22h-15.07v-32.96c0-1.61-.14-2.68-.41-3.23-.27-.54-.8-.82-1.6-.82-1.48,0-2.23,1.35-2.23,4.05v32.96h-15.07Z"/>
    <path class="cls-1" d="M209.19,56.71v11.28h-9.84c-1.34,0-2.28.2-2.84.59-.56.4-.84,1.06-.84,2,0,1.06.28,1.76.85,2.1.57.33,1.73.5,3.49.5h10.13v14.48h-11.84c-5.57,0-9.82-1.33-12.77-3.99-2.94-2.66-4.42-6.5-4.42-11.52v-19.86c0-4.85,1.39-8.61,4.18-11.28s6.7-4.01,11.75-4.01h13.1v14.55h-9.61c-2.6,0-3.9.84-3.9,2.52,0,.99.31,1.68.93,2.06.62.38,1.72.58,3.3.58h8.31Z"/>
    <path class="cls-1" d="M217.77,87.67v-32.88c0-5.76,1.73-10.38,5.18-13.84,3.45-3.46,8.05-5.2,13.79-5.2s10.09,1.68,13.12,5.05c3.03,3.37,4.55,8.2,4.55,14.51v32.36h-15.07v-32.36c0-3.09-1.1-4.64-3.3-4.64s-3.19,1.55-3.19,4.64v32.36h-15.07Z"/>
  </g>
</svg>